<!DOCTYPE svg PUBLIC "-//W3C//DTD SVG 1.1//EN" "http://www.w3.org/Graphics/SVG/1.1/DTD/svg11.dtd">
<!-- Uploaded to: SVG Repo, www.svgrepo.com, Transformed by: SVG Repo Mixer Tools -->
<svg width="256px" height="256px" viewBox="0 0 190.00 190.00" fill="none" xmlns="http://www.w3.org/2000/svg" stroke="#ffffff">
<g id="SVGRepo_bgCarrier" stroke-width="0"/>
<g id="SVGRepo_tracerCarrier" stroke-linecap="round" stroke-linejoin="round" stroke="#CCCCCC" stroke-width="2.2800000000000002"/>
<g id="SVGRepo_iconCarrier"> <path fill-rule="evenodd" clip-rule="evenodd" d="M90.62 147.24C80.3 147.24 65.62 146.72 55.83 146.72C37.52 146.72 32.55 135.89 32.55 122.12C32.55 108.35 32.82 93.1198 32.82 87.8998C32.82 72.4298 39.67 63.8398 56.65 63.8398C62.93 63.8398 86.55 63.7798 94.59 63.7798C110.04 63.7798 117.45 70.1598 117.45 88.8398C117.45 93.4498 117.11 102.08 117.11 126.01C117.11 141.06 110 147.24 90.62 147.24ZM105.45 101.24L75.9 99.9098L76 113L93.13 111.94C91.03 118.44 85.57 123.68 76.76 123.68C51.46 123.68 52.6 87.5198 76.36 87.5198C78.6881 87.4303 81.0099 87.817 83.1833 88.6561C85.3567 89.4952 87.336 90.7691 89 92.3998L97.31 83.8998C92.42 78.9998 85.52 75.8398 76.53 75.8398C37.42 75.8398 35.53 135.36 77.19 135.36C98.06 135.36 107.56 117.45 105.45 101.28V101.24Z" fill="#ffffff"/> </g>
</svg>